<?xml version="1.0" standalone="no"?><svg xmlns:xlink="http://www.w3.org/1999/xlink" xmlns="http://www.w3.org/2000/svg" viewBox="0 0 1000 500" preserveAspectRatio="xMaxYMax slice"><g transform="scale(1.0460251046025104)"><rect x="0" y="0" width="956" height="478" fill="#000000"/><rect x="0" y="119.5" width="119.5" height="119.5" fill="#909090"/><polygon points="0,119.5 119.5,239 0,239" fill="#0e4005"/><rect x="717" y="119.5" width="119.5" height="119.5" fill="#5b5b5b"/><polygon points="717,119.5 836.5,119.5 836.5,239" fill="#33e612"/><rect x="836.5" y="119.5" width="119.5" height="119.5" fill="#2dc810"/><polygon points="836.5,119.5 956,119.5 836.5,239" fill="#e3e3e3"/><rect x="0" y="239" width="119.5" height="119.5" fill="#f2f2f2"/><polygon points="119.5,239 119.5,358.5 0,358.5" fill="#a4a4a4"/><rect x="119.5" y="239" width="119.5" height="119.5" fill="#145a07"/><polygon points="119.5,239 239,358.5 119.5,358.5" fill="#0a0a0a"/><rect x="239" y="239" width="119.5" height="119.5" fill="#dedede"/><polygon points="239,239 358.5,239 239,358.5" fill="#595959"/><rect x="358.5" y="239" width="119.5" height="119.5" fill="#131313"/><polygon points="358.5,239 478,239 358.5,358.5" fill="#b7b7b7"/><rect x="597.5" y="239" width="119.5" height="119.5" fill="#26a80d"/><polygon points="597.5,239 717,358.5 597.5,358.5" fill="#959595"/><rect x="717" y="239" width="119.5" height="119.5" fill="#c1c1c1"/><polygon points="717,239 836.5,239 836.5,358.5" fill="#020801"/><rect x="836.5" y="239" width="119.5" height="119.5" fill="#626262"/><polygon points="836.5,239 956,239 956,358.5" fill="#404040"/><rect x="0" y="358.5" width="119.5" height="119.5" fill="#25a60d"/><polygon points="0,358.5 119.5,358.5 0,478" fill="#e4e4e4"/><rect x="119.5" y="358.5" width="119.5" height="119.5" fill="#060606"/><polygon points="239,358.5 239,478 119.5,478" fill="#061c02"/><rect x="239" y="358.5" width="119.5" height="119.5" fill="#2c2c2c"/><polygon points="239,358.5 358.5,478 239,478" fill="#1a7309"/><rect x="358.5" y="358.5" width="119.5" height="119.5" fill="#27ad0e"/><polygon points="358.5,358.5 478,358.5 478,478" fill="#e7e7e7"/><rect x="478" y="358.5" width="119.5" height="119.5" fill="#36f013"/><polygon points="478,358.5 597.5,358.5 478,478" fill="#061c02"/><rect x="597.5" y="358.5" width="119.5" height="119.5" fill="#1d820a"/><polygon points="717,358.5 717,478 597.5,478" fill="#0b3204"/><rect x="717" y="358.5" width="119.5" height="119.5" fill="#8b8b8b"/><polygon points="717,358.5 836.5,358.5 836.5,478" fill="#27b00e"/><rect x="836.5" y="358.5" width="119.5" height="119.5" fill="#c9c9c9"/><polygon points="836.5,358.5 956,478 836.5,478" fill="#0b0b0b"/></g></svg>