<?xml version="1.0" standalone="no"?><svg xmlns:xlink="http://www.w3.org/1999/xlink" xmlns="http://www.w3.org/2000/svg" viewBox="0 0 1000 500" preserveAspectRatio="xMaxYMax slice"><g transform="scale(1.1185682326621924)"><rect x="0" y="0" width="894" height="447" fill="#000000"/><rect x="447" y="111.75" width="111.75" height="111.75" fill="#212121"/><g transform="translate(447,111.75) scale(5.5875) rotate(0)"><rect width="2" height="20" fill="#f6f6f6"/><rect x="4" width="2" height="20" fill="#f6f6f6"/><rect x="8" width="2" height="20" fill="#f6f6f6"/><rect x="12" width="2" height="20" fill="#f6f6f6"/><rect x="16" width="2" height="20" fill="#f6f6f6"/></g><rect x="558.75" y="111.75" width="111.75" height="111.75" fill="#1a7509"/><g transform="translate(558.75,111.75) scale(5.5875) rotate(0)"><rect width="2" height="20" fill="#585858"/><rect x="4" width="2" height="20" fill="#585858"/><rect x="8" width="2" height="20" fill="#585858"/><rect x="12" width="2" height="20" fill="#585858"/><rect x="16" width="2" height="20" fill="#585858"/></g><rect x="670.5" y="111.75" width="111.75" height="111.75" fill="#041201"/><g transform="translate(670.5,111.75) scale(5.5875) rotate(0)"><rect width="2" height="20" fill="#b6b6b6"/><rect x="4" width="2" height="20" fill="#b6b6b6"/><rect x="8" width="2" height="20" fill="#b6b6b6"/><rect x="12" width="2" height="20" fill="#b6b6b6"/><rect x="16" width="2" height="20" fill="#b6b6b6"/></g><rect x="0" y="223.5" width="111.75" height="111.75" fill="#1a7609"/><g transform="translate(0,223.5) scale(5.5875) rotate(0)"><rect width="2" height="20" fill="#104a06"/><rect x="4" width="2" height="20" fill="#104a06"/><rect x="8" width="2" height="20" fill="#104a06"/><rect x="12" width="2" height="20" fill="#104a06"/><rect x="16" width="2" height="20" fill="#104a06"/></g><rect x="111.75" y="223.5" width="111.75" height="111.75" fill="#a6a6a6"/><g transform="translate(111.75,223.5) scale(5.5875) rotate(0)"><rect width="2" height="20" fill="#2cc50f"/><rect x="4" width="2" height="20" fill="#2cc50f"/><rect x="8" width="2" height="20" fill="#2cc50f"/><rect x="12" width="2" height="20" fill="#2cc50f"/><rect x="16" width="2" height="20" fill="#2cc50f"/></g><rect x="223.5" y="223.5" width="111.75" height="111.75" fill="#071f02"/><g transform="translate(223.5,223.5) scale(5.5875) rotate(0)"><rect width="2" height="20" fill="#bbbbbb"/><rect x="4" width="2" height="20" fill="#bbbbbb"/><rect x="8" width="2" height="20" fill="#bbbbbb"/><rect x="12" width="2" height="20" fill="#bbbbbb"/><rect x="16" width="2" height="20" fill="#bbbbbb"/></g><rect x="335.25" y="223.5" width="111.75" height="111.75" fill="#2bc20f"/><g transform="translate(335.25,223.5) scale(5.5875) rotate(0)"><rect width="2" height="20" fill="#545454"/><rect x="4" width="2" height="20" fill="#545454"/><rect x="8" width="2" height="20" fill="#545454"/><rect x="12" width="2" height="20" fill="#545454"/><rect x="16" width="2" height="20" fill="#545454"/></g><rect x="558.75" y="223.5" width="111.75" height="111.75" fill="#2dca10"/><g transform="translate(558.75,223.5) scale(5.5875) rotate(0)"><rect width="2" height="20" fill="#bfbfbf"/><rect x="4" width="2" height="20" fill="#bfbfbf"/><rect x="8" width="2" height="20" fill="#bfbfbf"/><rect x="12" width="2" height="20" fill="#bfbfbf"/><rect x="16" width="2" height="20" fill="#bfbfbf"/></g><rect x="0" y="335.25" width="111.75" height="111.75" fill="#239f0c"/><g transform="translate(0,335.25) scale(5.5875) rotate(0)"><rect width="2" height="20" fill="#bbbbbb"/><rect x="4" width="2" height="20" fill="#bbbbbb"/><rect x="8" width="2" height="20" fill="#bbbbbb"/><rect x="12" width="2" height="20" fill="#bbbbbb"/><rect x="16" width="2" height="20" fill="#bbbbbb"/></g><rect x="111.75" y="335.25" width="111.75" height="111.75" fill="#125106"/><g transform="translate(111.75,335.25) scale(5.5875) rotate(0)"><rect width="2" height="20" fill="#020202"/><rect x="4" width="2" height="20" fill="#020202"/><rect x="8" width="2" height="20" fill="#020202"/><rect x="12" width="2" height="20" fill="#020202"/><rect x="16" width="2" height="20" fill="#020202"/></g><rect x="223.5" y="335.25" width="111.75" height="111.75" fill="#131313"/><g transform="translate(223.5,335.25) scale(5.5875) rotate(0)"><rect width="2" height="20" fill="#afafaf"/><rect x="4" width="2" height="20" fill="#afafaf"/><rect x="8" width="2" height="20" fill="#afafaf"/><rect x="12" width="2" height="20" fill="#afafaf"/><rect x="16" width="2" height="20" fill="#afafaf"/></g><rect x="335.25" y="335.25" width="111.75" height="111.75" fill="#28b50e"/><g transform="translate(335.25,335.25) scale(5.5875) rotate(0)"><rect width="2" height="20" fill="#898989"/><rect x="4" width="2" height="20" fill="#898989"/><rect x="8" width="2" height="20" fill="#898989"/><rect x="12" width="2" height="20" fill="#898989"/><rect x="16" width="2" height="20" fill="#898989"/></g><rect x="447" y="335.25" width="111.75" height="111.75" fill="#041101"/><g transform="translate(447,335.25) scale(5.5875) rotate(0)"><rect width="2" height="20" fill="#dcdcdc"/><rect x="4" width="2" height="20" fill="#dcdcdc"/><rect x="8" width="2" height="20" fill="#dcdcdc"/><rect x="12" width="2" height="20" fill="#dcdcdc"/><rect x="16" width="2" height="20" fill="#dcdcdc"/></g><rect x="558.75" y="335.25" width="111.75" height="111.75" fill="#37f813"/><g transform="translate(558.75,335.25) scale(5.5875) rotate(0)"><rect width="2" height="20" fill="#303030"/><rect x="4" width="2" height="20" fill="#303030"/><rect x="8" width="2" height="20" fill="#303030"/><rect x="12" width="2" height="20" fill="#303030"/><rect x="16" width="2" height="20" fill="#303030"/></g><rect x="670.5" y="335.25" width="111.75" height="111.75" fill="#27b00e"/><g transform="translate(670.5,335.25) scale(5.5875) rotate(0)"><rect width="2" height="20" fill="#9a9a9a"/><rect x="4" width="2" height="20" fill="#9a9a9a"/><rect x="8" width="2" height="20" fill="#9a9a9a"/><rect x="12" width="2" height="20" fill="#9a9a9a"/><rect x="16" width="2" height="20" fill="#9a9a9a"/></g><rect x="782.25" y="335.25" width="111.75" height="111.75" fill="#30d811"/><g transform="translate(782.25,335.25) scale(5.5875) rotate(0)"><rect width="2" height="20" fill="#252525"/><rect x="4" width="2" height="20" fill="#252525"/><rect x="8" width="2" height="20" fill="#252525"/><rect x="12" width="2" height="20" fill="#252525"/><rect x="16" width="2" height="20" fill="#252525"/></g></g></svg>